Coordinates
version=1
nRows=49
nColumns=12
inDegrees=yes

Units are S.I. units (second, meters, Newtons, ...)
Angles are in degrees

endheader
time	SC_y	SC_z	SC_x	AC_y	AC_z	AC_x	GH_y	GH_z	GH_yy	EL_x	PS_y
       0.0              -13.05       -0.06424          46.07          31.28         -17.64         -3.844          172.6          82.68          173.5          29.74          85.11
   0.03191              -13.05        -0.0608          46.07          31.28         -17.64         -3.842          172.6          82.68          173.5          29.74          85.12
   0.06382              -13.05       -0.05715          46.07          31.29         -17.64         -3.839          172.5          82.67          173.4          29.74          85.12
   0.09574              -13.05       -0.05326          46.08          31.29         -17.64         -3.837          172.4          82.67          173.4          29.74          85.12
    0.1276              -13.05       -0.04913          46.08           31.3         -17.64         -3.834          172.4          82.67          173.3          29.74          85.13
    0.1596              -13.06       -0.04472          46.08           31.3         -17.64         -3.831          172.3          82.66          173.3          29.75          85.13
    0.1915              -13.06       -0.04001          46.09           31.3         -17.64         -3.828          172.2          82.66          173.2          29.75          85.14
    0.2234              -13.06       -0.03498          46.09          31.31         -17.64         -3.825          172.2          82.65          173.2          29.75          85.15
    0.2553              -13.06       -0.02958          46.09          31.32         -17.64         -3.821          172.1          82.64          173.1          29.76          85.15
    0.2872              -13.07        -0.0238           46.1          31.32         -17.64         -3.817          172.0          82.64          173.0          29.76          85.16
    0.3191              -13.07       -0.01759           46.1          31.33         -17.64         -3.813          171.9          82.63          173.0          29.76          85.17
     0.351              -13.07       -0.01091          46.11          31.33         -17.64         -3.808          171.8          82.62          172.9          29.77          85.17
    0.3829              -13.08      -0.003702          46.11          31.34         -17.64         -3.804          171.7          82.61          172.8          29.77          85.18
    0.4149              -13.08       0.004081          46.12          31.35         -17.64         -3.798          171.6          82.61          172.7          29.78          85.19
    0.4468              -13.09         0.0125          46.12          31.36         -17.64         -3.793          171.5           82.6          172.6          29.78           85.2
    0.4787              -13.09        0.02164          46.13          31.37         -17.64         -3.787          171.3          82.59          172.5          29.79          85.21
    0.5106               -13.1        0.03157          46.14          31.38         -17.64          -3.78          171.2          82.57          172.4          29.79          85.23
    0.5425               -13.1        0.04238          46.14          31.39         -17.65         -3.773          171.0          82.56          172.3           29.8          85.24
    0.5744              -13.11        0.05419          46.15           31.4         -17.65         -3.765          170.9          82.55          172.1          29.81          85.25
    0.6063              -13.12        0.06712          46.16          31.41         -17.65         -3.756          170.7          82.53          172.0          29.82          85.27
    0.6382              -13.12        0.08132          46.17          31.42         -17.65         -3.747          170.5          82.52          171.8          29.83          85.29
    0.6702              -13.13        0.09694          46.18          31.44         -17.65         -3.736          170.2           82.5          171.6          29.83           85.3
    0.7021              -13.14         0.1142          46.19          31.46         -17.65         -3.725          170.0          82.48          171.4          29.85          85.32
     0.734              -13.15         0.1333          46.21          31.48         -17.65         -3.712          169.7          82.46          171.2          29.86          85.35
    0.7659              -13.16         0.1546          46.22           31.5         -17.66         -3.698          169.4          82.43          171.0          29.87          85.37
    0.7978              -13.17         0.1783          46.24          31.52         -17.66         -3.682          169.0          82.41          170.7          29.88           85.4
    0.8297              -13.19         0.2049          46.26          31.55         -17.66         -3.664          168.6          82.38          170.4           29.9          85.43
    0.8616               -13.2         0.2348          46.28          31.57         -17.66         -3.644          168.2          82.34          170.0          29.92          85.47
    0.8935              -13.22         0.2685           46.3          31.61         -17.67         -3.622          167.7          82.31          169.6          29.94          85.51
    0.9254              -13.24         0.3069          46.33          31.65         -17.67         -3.596          167.1          82.26          169.2          29.96          85.56
    0.9574              -13.26         0.3507          46.36          31.69         -17.67         -3.567          166.5          82.21          168.7          29.99          85.61
    0.9893              -13.29         0.4009          46.39          31.74         -17.68         -3.533          165.7          82.16          168.1          30.02          85.67
     1.021              -13.32         0.4589          46.44          31.79         -17.68         -3.494          164.9          82.09          167.4          30.06          85.74
     1.053              -13.36         0.5263          46.48          31.86         -17.69         -3.449          163.9          82.01          166.6           30.1          85.82
     1.085               -13.4         0.6051          46.54          31.94          -17.7         -3.396          162.7          81.92          165.7          30.15          85.91
     1.117              -13.45         0.6981           46.6          32.03         -17.71         -3.334          161.3          81.82          164.6          30.21          86.03
     1.149               -13.5         0.8085          46.68          32.14         -17.72          -3.26          159.7          81.69          163.3          30.27          86.16
     1.181              -13.57         0.9409          46.77          32.27         -17.73         -3.172          157.7          81.54          161.8          30.35          86.32
     1.213              -13.66          1.101          46.88          32.43         -17.74         -3.065          155.3          81.36          159.9          30.45          86.51
     1.245              -13.76          1.297          47.02          32.62         -17.76         -2.934          152.4          81.14          157.6          30.57          86.74
     1.276              -13.88          1.538          47.19          32.85         -17.78         -2.772          148.9          80.87          154.8          30.72          87.03
     1.308              -14.04          1.839           47.4          33.15         -17.81         -2.571          144.4          80.53          151.2          30.91          87.39
      1.34              -14.24          2.219          47.67          33.52         -17.85         -2.317          138.8           80.1          146.8          31.14          87.85
     1.372              -14.49          2.701           48.0           34.0         -17.89         -1.995          131.6          79.55          141.2          31.44          88.43
     1.404              -14.81          3.318          48.43           34.6         -17.95         -1.582          122.5          78.85          133.9          31.82          89.17
     1.436              -15.23          4.111          48.99          35.38         -18.02         -1.052          110.8          77.95          124.7          32.31          90.12
     1.468              -15.76          5.123           49.7          36.37         -18.12        -0.3751          95.77           76.8          112.8          32.93          91.33
       1.5              -16.42          6.395          50.59          37.62         -18.23         0.4759          76.92          75.36          97.95          33.71          92.86
     1.532              -17.23          7.945          51.67          39.14         -18.38          1.513          53.96          73.61          79.81          34.67          94.72
